<svg enable-background="new 0 0 1920 1371" id="Layer_1" version="1.1"
    viewBox="0 0 1920 1371" width="100%" x="0px"
    xmlns="http://www.w3.org/2000/svg" y="0px" xml:space="preserve">
<path d="
M1160.000000,1372.000000
	C773.333435,1372.000000 387.166901,1372.000000 1.000259,1372.000000
	C1.000173,915.000244 1.000173,458.000488 1.000086,1.000566
	C640.999573,1.000377 1280.999146,1.000377 1920.999023,1.000189
	C1920.999268,457.999420 1920.999268,914.998840 1920.999634,1371.999146
	C1667.500000,1372.000000 1414.000000,1372.000000 1160.000000,1372.000000
M564.113525,1224.699829
	C592.901672,1244.985229 623.176270,1262.752075 654.856140,1278.119141
	C729.699890,1314.423950 808.592285,1336.062134 891.497986,1342.681641
	C956.183960,1347.846191 1020.276672,1343.302856 1083.677856,1329.368164
	C1150.709473,1314.635620 1214.152222,1290.425293 1273.220703,1255.519775
	C1296.668213,1241.663940 1318.685669,1225.387817 1341.971680,1209.999023
	C1342.384155,1209.720947 1342.812500,1209.463745 1343.206665,1209.161865
	C1406.542480,1160.640991 1459.461548,1102.620483 1501.560303,1034.843384
	C1509.881836,1021.445923 1517.129883,1007.381592 1525.371338,993.184937
	C1525.874146,992.324951 1526.418457,991.486267 1526.874023,990.601990
	C1554.020874,937.917480 1574.122559,882.699707 1586.646851,824.738770
	C1603.254395,747.880005 1605.891724,670.501892 1594.647949,592.738953
	C1583.260742,513.984863 1558.394165,439.614685 1520.024048,369.867218
	C1469.918945,278.788635 1402.209351,203.465103 1316.535034,144.562653
	C1236.271240,89.380020 1147.913330,53.822945 1051.897827,37.443523
	C991.739685,27.181072 931.283142,25.553251 870.644043,32.337433
	C807.511047,39.400623 746.587280,55.152298 688.062805,79.906311
	C581.784241,124.858826 492.920349,192.676880 422.231812,283.915955
	C364.905518,357.908081 325.563019,440.707184 303.265350,531.592468
	C285.960022,602.128845 280.786133,673.630249 287.363678,745.904785
	C294.172333,820.718750 313.195801,892.403809 344.793488,960.583923
	C353.384674,979.121582 363.575104,996.918030 373.127991,1015.740784
	C373.511902,1016.477600 373.864929,1017.232422 374.284058,1017.948608
	C413.011230,1084.137939 461.522797,1142.117920 520.481750,1191.185913
	C534.398682,1202.768188 549.295227,1213.173218 564.113525,1224.699829
z" fill="#FFFFFF" opacity="1.000000" stroke="none" />
    <path d="
M373.031555,1015.054688
	C363.575104,996.918030 353.384674,979.121582 344.793488,960.583923
	C313.195801,892.403809 294.172333,820.718750 287.363678,745.904785
	C280.786133,673.630249 285.960022,602.128845 303.265350,531.592468
	C325.563019,440.707184 364.905518,357.908081 422.231812,283.915955
	C492.920349,192.676880 581.784241,124.858826 688.062805,79.906311
	C746.587280,55.152298 807.511047,39.400623 870.644043,32.337433
	C931.283142,25.553251 991.739685,27.181072 1051.897827,37.443523
	C1147.913330,53.822945 1236.271240,89.380020 1316.535034,144.562653
	C1402.209351,203.465103 1469.918945,278.788635 1520.024048,369.867218
	C1558.394165,439.614685 1583.260742,513.984863 1594.647949,592.738953
	C1605.891724,670.501892 1603.254395,747.880005 1586.646851,824.738770
	C1574.122559,882.699707 1554.020874,937.917480 1526.874023,990.601990
	C1526.418457,991.486267 1525.874146,992.324951 1524.756592,993.194946
	C1490.088379,960.027832 1456.034912,926.850708 1421.059326,892.775269
	C1414.759155,899.465698 1408.737183,905.860657 1402.439941,912.066650
	C1387.928833,897.866150 1373.693359,883.854553 1359.505981,869.890503
	C1354.837036,874.069946 1350.564941,877.894043 1346.238525,881.282959
	C1326.823242,815.801025 1307.478271,750.749634 1288.023926,685.731018
	C1287.447144,683.803223 1286.003296,681.911499 1284.488037,680.521423
	C1260.445923,658.465271 1236.298462,636.523743 1212.234741,614.491089
	C1199.598022,602.920959 1187.076538,591.225159 1174.755737,579.282227
	C1231.991821,510.134796 1288.975220,441.291229 1346.107544,372.267670
	C1331.911011,360.508240 1318.230469,349.176331 1304.670532,337.944244
	C1305.478394,336.132385 1306.052612,334.844543 1306.656494,333.490021
	C1304.706665,332.185364 1303.046143,331.086182 1301.397583,329.969452
	C1289.541870,321.938324 1277.088501,314.652100 1265.951660,305.723846
	C1237.360596,282.803040 1209.355591,259.151398 1181.113647,235.795120
	C1170.238647,226.801392 1159.356323,217.816422 1148.187622,208.588058
	C1144.437256,213.047485 1140.955322,217.187927 1137.357422,221.466125
	C1122.370972,211.585480 1107.811279,201.986298 1092.832764,192.110870
	C1088.372681,198.738937 1084.148315,205.016754 1079.835449,211.426025
	C1063.016724,202.756454 1046.637573,194.313385 1029.879150,185.674896
	C1025.670532,193.688416 1021.616516,201.407776 1017.469238,209.304565
	C1001.131409,203.263702 985.280579,197.402939 969.147339,191.437744
	C966.183899,199.207123 963.431335,206.423691 960.621826,213.789429
	C943.600830,209.447311 927.178711,205.257950 910.383179,200.973343
	C909.103638,205.490845 907.897095,209.750778 906.563904,214.457733
	C889.012329,211.573364 871.706604,208.729416 853.533936,205.742981
	C854.948242,213.155106 850.060547,217.093262 846.187622,222.066193
	C830.599792,221.185211 814.390869,220.269135 797.952271,219.340057
	C797.632568,224.149048 797.278564,228.290543 797.096985,232.439590
	C796.649597,242.661209 796.677979,242.586395 786.489441,243.053253
	C771.219238,243.752960 755.954468,244.572235 740.783325,245.335831
	C740.783325,254.349319 740.783325,262.925110 740.783325,272.063904
	C724.416992,274.919922 707.772461,277.824463 690.611145,280.819183
	C691.954224,288.888428 693.223694,296.515900 694.533630,304.386169
	C677.606812,309.179352 661.212708,313.821686 644.500305,318.554169
	C646.775146,326.776031 648.880798,334.386200 651.016357,342.104736
	C633.357117,349.389954 616.209412,356.464111 598.856934,363.622772
	C633.822510,448.759155 668.537964,533.286743 703.062500,618.110779
	C680.497009,638.867554 658.070435,659.271667 635.826416,679.872864
	C633.536987,681.993164 631.633118,685.078674 630.735046,688.071716
	C611.361084,752.640808 592.155945,817.260559 572.572266,881.733582
	C568.570129,877.394470 564.913879,873.192383 561.171265,868.891052
	C558.894104,871.043030 557.931335,871.931152 556.992188,872.843628
	C543.464355,885.987976 529.939697,899.135620 516.148926,912.035522
	C509.770630,905.782349 503.657745,899.776245 497.410065,893.637695
	C480.684082,909.960266 464.148163,926.092651 447.617493,942.230469
	C422.753540,966.503174 397.893341,990.779785 373.031555,1015.054688
z" fill="#0068FF" opacity="1.000000" stroke="none" />
    <path d="
M1341.354248,1210.213745
	C1318.685669,1225.387817 1296.668213,1241.663940 1273.220703,1255.519775
	C1214.152222,1290.425293 1150.709473,1314.635620 1083.677856,1329.368164
	C1020.276672,1343.302856 956.183960,1347.846191 891.497986,1342.681641
	C808.592285,1336.062134 729.699890,1314.423950 654.856140,1278.119141
	C623.176270,1262.752075 592.901672,1244.985229 564.154663,1224.142090
	C608.115479,1180.790527 652.035156,1137.996582 697.074951,1094.111206
	C685.416626,1082.953613 674.244507,1072.261230 663.188110,1061.286133
	C677.302002,1046.510986 691.300171,1032.018555 705.921509,1016.880981
	C705.159607,1016.300964 703.537720,1015.356689 702.277954,1014.060364
	C693.621826,1005.152405 685.041443,996.170898 676.819702,987.101685
	C720.160034,969.296326 763.125061,951.620728 806.054382,933.858826
	C808.446045,932.869324 810.922913,931.544983 812.720276,929.739563
	C852.220947,890.060364 891.619385,850.279297 931.069946,810.550171
	C937.745239,803.827698 944.571838,797.255432 951.493835,790.451416
	C952.567749,791.302368 953.635559,792.056091 954.599304,792.925232
	C1004.708496,838.117676 1054.801636,883.327942 1104.938232,928.489929
	C1106.884277,930.242981 1109.050659,931.998840 1111.432495,932.984314
	C1155.282104,951.126404 1199.180176,969.151001 1242.939697,987.500488
	C1232.923096,998.000610 1223.034912,1008.200684 1214.203247,1017.310913
	C1228.462769,1032.175415 1242.374512,1046.677368 1256.138062,1061.485596
	C1245.227417,1072.831665 1234.464722,1083.871704 1224.716187,1093.871460
	C1235.023926,1104.796265 1244.648560,1115.624390 1254.936279,1125.780640
	C1283.595093,1154.074097 1312.528931,1182.088867 1341.354248,1210.213745
z" fill="#0068FF" opacity="1.000000" stroke="none" />
    <path d="
M663.072449,1061.568848
	C674.244507,1072.261230 685.416626,1082.953613 697.074951,1094.111206
	C652.035156,1137.996582 608.115479,1180.790527 563.968506,1223.852051
	C549.295227,1213.173218 534.398682,1202.768188 520.481750,1191.185913
	C461.522797,1142.117920 413.011230,1084.137939 374.284058,1017.948608
	C373.864929,1017.232422 373.511902,1016.477600 373.079773,1015.397705
	C397.893341,990.779785 422.753540,966.503174 447.617493,942.230469
	C464.148163,926.092651 480.684082,909.960266 497.410065,893.637695
	C503.657745,899.776245 509.770630,905.782349 515.994019,912.363281
	C516.887512,914.268555 517.456055,915.802612 518.491394,916.893677
	C522.619385,921.243835 526.906006,925.442993 531.110046,929.721497
	C573.614746,972.978394 616.105652,1016.248962 658.667603,1059.449463
	C659.744019,1060.542114 661.586975,1060.879272 663.072449,1061.568848
M595.166077,1150.980713
	C596.635742,1135.575562 584.399841,1122.696655 568.943176,1124.406616
	C550.383606,1126.459839 543.049927,1139.202637 546.511169,1155.809448
	C548.937622,1167.451050 557.397766,1175.668823 575.060486,1173.870361
	C584.321594,1172.927490 594.572388,1164.367554 595.166077,1150.980713
z" fill="#19191A" opacity="1.000000" stroke="none" />
    <path d="
M1341.662964,1210.106445
	C1312.528931,1182.088867 1283.595093,1154.074097 1254.936279,1125.780640
	C1244.648560,1115.624390 1235.023926,1104.796265 1224.716187,1093.871460
	C1234.464722,1083.871704 1245.227417,1072.831665 1256.431030,1061.353027
	C1257.247925,1060.587891 1257.648193,1060.285400 1257.996094,1059.931641
	C1294.424683,1022.892700 1330.869995,985.870117 1367.262573,948.795959
	C1379.150757,936.685181 1390.901489,924.439453 1402.715210,912.255493
	C1408.737183,905.860657 1414.759155,899.465698 1421.059326,892.775269
	C1456.034912,926.850708 1490.088379,960.027832 1524.507446,993.414917
	C1517.129883,1007.381592 1509.881836,1021.445923 1501.560303,1034.843384
	C1459.461548,1102.620483 1406.542480,1160.640991 1343.206665,1209.161865
	C1342.812500,1209.463745 1342.384155,1209.720947 1341.662964,1210.106445
M1322.696045,1156.424805
	C1325.348877,1160.554077 1327.207153,1165.630371 1330.797607,1168.641724
	C1343.514771,1179.308105 1364.722656,1174.513672 1370.335815,1157.520264
	C1373.218384,1148.792969 1372.046265,1141.002197 1366.476440,1134.120483
	C1360.225952,1126.397949 1352.111572,1122.424683 1341.878174,1124.871216
	C1326.848145,1128.464722 1320.292725,1138.876343 1322.696045,1156.424805
z" fill="#191A1A" opacity="1.000000" stroke="none" />
    <path d="
M1243.068115,987.200439
	C1199.180176,969.151001 1155.282104,951.126404 1111.432495,932.984314
	C1109.050659,931.998840 1106.884277,930.242981 1104.938232,928.489929
	C1054.801636,883.327942 1004.708496,838.117676 954.599304,792.925232
	C953.635559,792.056091 952.567749,791.302368 951.493835,790.451416
	C944.571838,797.255432 937.745239,803.827698 931.069946,810.550171
	C891.619385,850.279297 852.220947,890.060364 812.720276,929.739563
	C810.922913,931.544983 808.446045,932.869324 806.054382,933.858826
	C763.125061,951.620728 720.160034,969.296326 676.530396,986.992920
	C662.671082,973.659607 649.500793,960.307190 636.292847,946.992126
	C618.987976,929.546814 601.611938,912.171753 584.362427,894.671997
	C580.349121,890.600586 576.722595,886.147827 572.918091,881.870544
	C592.155945,817.260559 611.361084,752.640808 630.735046,688.071716
	C631.633118,685.078674 633.536987,681.993164 635.826416,679.872864
	C658.070435,659.271667 680.497009,638.867554 703.338013,617.965820
	C707.833374,613.768127 711.862305,610.011963 716.216736,606.105835
	C719.141541,603.536499 721.740906,601.117126 724.606567,598.555420
	C729.634094,593.915527 734.395264,589.417847 739.458679,584.815918
	C761.577942,564.855835 783.394958,545.000000 805.463257,524.915405
	C807.217102,527.229248 808.596558,528.885559 809.799988,530.661194
	C826.668884,555.551147 826.009827,583.978027 808.139282,609.425415
	C802.799622,617.029053 797.752319,624.838013 792.287170,632.731873
	C781.105286,649.892456 770.207275,666.874084 759.061279,684.125977
	C756.550537,688.182007 754.287842,691.967712 751.773560,695.997620
	C749.424011,699.641907 747.581177,703.237854 745.160950,706.390625
	C742.381104,710.011902 742.535339,713.246033 744.251587,717.355896
	C755.796204,745.002197 767.075012,772.759399 778.466431,800.469788
	C783.390320,812.447632 788.377197,824.399536 793.472839,836.694763
	C795.538635,835.951416 797.257019,835.403259 798.921692,834.723511
	C823.269958,824.781189 847.610535,814.820129 871.953857,804.865723
	C929.113159,781.492310 986.277405,758.130859 1043.413696,734.701111
	C1045.340210,733.911194 1047.394653,732.781860 1048.700195,731.230652
	C1060.387695,717.344055 1071.880981,703.294373 1083.511841,689.359741
	C1091.504761,679.783569 1099.625244,670.313965 1108.013184,660.969727
	C1130.242554,674.107666 1152.147705,687.072754 1174.052856,700.037781
	C1171.082642,694.154602 1167.584717,689.083801 1164.020264,684.060181
	C1152.366455,667.634644 1140.688232,651.226379 1128.893555,634.502686
	C1125.773682,630.054688 1122.779541,625.915527 1119.749268,621.512085
	C1118.988159,620.328125 1118.263062,619.408569 1117.383545,618.134521
	C1114.294189,613.680115 1111.359253,609.580078 1108.326172,605.170288
	C1107.171387,603.175232 1106.114502,601.489990 1105.017334,599.450989
	C1089.971069,570.442749 1099.988892,539.647217 1114.384399,525.428528
	C1115.570923,526.291382 1116.765991,527.160400 1118.080933,528.323303
	C1119.487793,529.679810 1120.774902,530.742432 1122.220215,532.102539
	C1126.773071,536.292847 1131.167603,540.185608 1135.732300,544.388855
	C1138.576294,547.028564 1141.250244,549.357727 1144.059570,552.011353
	C1148.034912,555.781677 1151.875122,559.227539 1155.936279,562.967163
	C1158.384766,565.180420 1160.611938,567.100037 1162.989746,569.324402
	C1166.927856,572.948181 1170.715454,576.267151 1174.502930,579.586121
	C1187.076538,591.225159 1199.598022,602.920959 1212.234741,614.491089
	C1236.298462,636.523743 1260.445923,658.465271 1284.488037,680.521423
	C1286.003296,681.911499 1287.447144,683.803223 1288.023926,685.731018
	C1307.478271,750.749634 1326.823242,815.801025 1346.171875,881.574463
	C1345.425659,883.376282 1344.832642,884.588623 1343.937378,885.505798
	C1328.634888,901.183228 1313.295288,916.824402 1297.963013,932.472717
	C1282.627441,948.124207 1267.322266,963.805847 1251.925659,979.397217
	C1249.167480,982.190186 1246.030273,984.608887 1243.068115,987.200439
z" fill="#F6C89A" opacity="1.000000" stroke="none" />
    <path d="
M1117.961060,528.029419
	C1116.765991,527.160400 1115.570923,526.291382 1114.384399,525.428528
	C1099.988892,539.647217 1089.971069,570.442749 1104.783691,599.717529
	C1098.482056,612.093445 1092.373901,623.848999 1086.265747,635.604553
	C1086.762085,635.910706 1087.258423,636.216797 1087.754883,636.522949
	C1094.644653,626.175354 1101.534424,615.827698 1108.424316,605.480103
	C1111.359253,609.580078 1114.294189,613.680115 1117.251953,618.442932
	C1115.580566,622.211182 1113.886353,625.316528 1112.192139,628.421936
	C1112.464844,628.640869 1112.737549,628.859802 1113.010132,629.078735
	C1115.268555,626.644592 1117.526978,624.210510 1119.785400,621.776367
	C1122.779541,625.915527 1125.773682,630.054688 1128.623535,634.714783
	C1121.549072,643.756104 1114.618896,652.276428 1107.688843,660.796753
	C1099.625244,670.313965 1091.504761,679.783569 1083.511841,689.359741
	C1071.880981,703.294373 1060.387695,717.344055 1048.700195,731.230652
	C1047.394653,732.781860 1045.340210,733.911194 1043.413696,734.701111
	C986.277405,758.130859 929.113159,781.492310 871.953857,804.865723
	C847.610535,814.820129 823.269958,824.781189 798.921692,834.723511
	C797.257019,835.403259 795.538635,835.951416 793.472839,836.694763
	C788.377197,824.399536 783.390320,812.447632 778.466431,800.469788
	C767.075012,772.759399 755.796204,745.002197 744.251587,717.355896
	C742.535339,713.246033 742.381104,710.011902 745.160950,706.390625
	C747.581177,703.237854 749.424011,699.641907 752.031494,696.263000
	C769.545837,737.592773 786.550659,778.901306 803.692139,820.541931
	C873.534790,791.865295 942.601685,763.507263 1012.036194,734.998169
	C950.699890,585.691711 889.572815,436.894470 828.247986,287.615814
	C758.612854,316.209503 689.414917,344.623627 620.032166,373.113708
	C620.531067,374.524933 620.815247,375.455322 621.183167,376.351379
	C644.130676,432.243835 667.062927,488.142609 690.050354,544.018616
	C698.596619,564.792053 707.273804,585.511658 715.891296,606.255798
	C711.862305,610.011963 707.833374,613.768127 703.528931,617.669312
	C668.537964,533.286743 633.822510,448.759155 598.856934,363.622772
	C616.209412,356.464111 633.357117,349.389954 651.016357,342.104736
	C648.880798,334.386200 646.775146,326.776031 644.500305,318.554169
	C661.212708,313.821686 677.606812,309.179352 694.533630,304.386169
	C693.223694,296.515900 691.954224,288.888428 690.611145,280.819183
	C707.772461,277.824463 724.416992,274.919922 740.783325,272.063904
	C740.783325,262.925110 740.783325,254.349319 740.783325,245.335831
	C755.954468,244.572235 771.219238,243.752960 786.489441,243.053253
	C796.677979,242.586395 796.649597,242.661209 797.096985,232.439590
	C797.278564,228.290543 797.632568,224.149048 797.952271,219.340057
	C814.390869,220.269135 830.599792,221.185211 846.187622,222.066193
	C850.060547,217.093262 854.948242,213.155106 853.533936,205.742981
	C871.706604,208.729416 889.012329,211.573364 906.563904,214.457733
	C907.897095,209.750778 909.103638,205.490845 910.383179,200.973343
	C927.178711,205.257950 943.600830,209.447311 960.621826,213.789429
	C963.431335,206.423691 966.183899,199.207123 969.147339,191.437744
	C985.280579,197.402939 1001.131409,203.263702 1017.469238,209.304565
	C1021.616516,201.407776 1025.670532,193.688416 1029.879150,185.674896
	C1046.637573,194.313385 1063.016724,202.756454 1079.835449,211.426025
	C1084.148315,205.016754 1088.372681,198.738937 1092.832764,192.110870
	C1107.811279,201.986298 1122.370972,211.585480 1137.357422,221.466125
	C1140.955322,217.187927 1144.437256,213.047485 1148.187622,208.588058
	C1159.356323,217.816422 1170.238647,226.801392 1181.113647,235.795120
	C1209.355591,259.151398 1237.360596,282.803040 1265.951660,305.723846
	C1277.088501,314.652100 1289.541870,321.938324 1301.397583,329.969452
	C1303.046143,331.086182 1304.706665,332.185364 1306.656494,333.490021
	C1306.052612,334.844543 1305.478394,336.132385 1304.670532,337.944244
	C1318.230469,349.176331 1331.911011,360.508240 1346.107544,372.267670
	C1288.975220,441.291229 1231.991821,510.134796 1174.755737,579.282227
	C1170.715454,576.267151 1166.927856,572.948181 1163.178833,569.038818
	C1216.435791,504.148712 1269.654297,439.848969 1323.176270,375.182739
	C1313.579346,367.278687 1304.428833,359.742340 1295.001221,351.977753
	C1292.717773,355.425507 1290.827271,358.279694 1288.842896,361.275696
	C1295.175903,366.579437 1301.113892,371.552307 1307.218750,376.665009
	C1306.321289,377.823425 1305.746582,378.610229 1305.126221,379.359161
	C1294.406494,392.299561 1283.671875,405.227661 1272.958496,418.173401
	C1244.952881,452.015015 1216.826172,485.757599 1189.018677,519.761292
	C1177.560181,533.773071 1166.795532,548.352295 1155.715210,562.673462
	C1151.875122,559.227539 1148.034912,555.781677 1144.231079,551.733765
	C1190.972168,480.520996 1237.677002,409.910248 1284.544312,339.053925
	C1273.124146,331.506348 1262.334839,324.375641 1251.134888,316.973633
	C1249.333252,320.461578 1247.763062,323.501373 1246.005737,326.903595
	C1253.769897,332.125763 1261.273682,337.172791 1268.893066,342.297546
	C1224.221680,409.902405 1179.891968,476.990356 1135.562256,544.078308
	C1131.167603,540.185608 1126.773071,536.292847 1122.374512,531.810669
	C1123.208130,529.783813 1124.110474,528.380005 1124.873535,526.904053
	C1161.336670,456.367432 1197.789673,385.825531 1234.226318,315.275116
	C1234.876587,314.015869 1235.314575,312.647003 1235.931763,311.132721
	C1225.408813,305.671448 1215.260010,300.404327 1204.638062,294.891571
	C1203.254883,298.658691 1202.040894,301.965057 1200.770630,305.424561
	C1207.765625,309.130035 1214.195312,312.535980 1220.866211,316.069824
	C1220.033691,317.845795 1219.392944,319.341064 1218.648193,320.782684
	C1198.554565,359.678894 1178.383911,398.535431 1158.379028,437.477203
	C1149.638062,454.492401 1140.733887,471.453888 1132.841187,488.864685
	C1127.086304,501.559296 1122.865723,514.949402 1117.961060,528.029419
M1124.314575,234.468338
	C1124.850586,234.606918 1125.386719,234.745499 1125.922729,234.884079
	C1125.964722,234.657822 1126.006836,234.431549 1126.048828,234.205276
	C1125.359375,234.144150 1124.669922,234.083038 1124.020142,233.327530
	C1115.577393,227.541626 1107.164062,221.711517 1098.635132,216.055542
	C1097.966919,215.612381 1096.492554,216.384705 1095.392822,216.592163
	C1095.772095,217.795517 1095.793091,219.682037 1096.585571,220.097794
	C1105.658203,224.857376 1114.848511,229.393143 1124.314575,234.468338
M1073.548340,602.573303
	C1085.287109,571.082214 1097.061035,539.604248 1108.757324,508.097443
	C1131.629150,446.486938 1154.459473,384.861023 1177.302002,323.239655
	C1181.219971,312.670441 1185.113159,302.092194 1189.209961,290.997955
	C1177.809814,286.793060 1166.857666,282.753357 1155.649170,278.619141
	C1154.971069,280.928650 1154.689209,282.589630 1154.010376,284.068390
	C1152.034546,288.372162 1153.669556,290.321838 1157.961182,291.461548
	C1161.961792,292.523956 1165.688110,294.638275 1169.697144,295.643799
	C1174.211304,296.776031 1174.463623,298.874115 1172.991333,302.818787
	C1152.919434,356.594574 1132.945068,410.406891 1113.019165,464.237061
	C1106.954956,480.619598 1100.352295,496.857086 1095.361328,513.568665
	C1089.275146,533.947693 1084.560669,554.739746 1079.390747,575.387634
	C1077.095947,584.552490 1075.139038,593.801941 1072.516357,603.263733
	C1072.486572,603.801086 1072.456787,604.338501 1072.427002,604.875854
	C1072.565430,604.876160 1072.703979,604.876465 1072.842529,604.876770
	C1072.880127,604.235168 1072.917847,603.593506 1073.548340,602.573303
M1025.421387,457.000854
	C1025.873535,450.196381 1026.383057,443.395111 1026.768188,436.586853
	C1028.901611,398.874908 1030.971924,361.159332 1033.136353,323.449188
	C1033.879883,310.495209 1034.910889,297.557831 1035.665894,284.604462
	C1036.322021,273.348877 1036.773926,262.081421 1037.340576,250.307007
	C1023.903198,249.484924 1011.083191,248.700623 998.224060,247.913925
	C998.224060,252.035294 998.224060,255.287186 998.224060,258.921722
	C1007.591919,259.635834 1016.598206,260.322418 1025.357788,260.990204
	C1025.607422,262.104736 1025.759155,262.432159 1025.740601,262.749573
	C1023.796143,295.967346 1021.833130,329.184052 1019.885315,362.401642
	C1019.174255,374.528473 1018.538513,386.659790 1017.797546,398.784760
	C1015.605896,434.651001 1012.620667,470.490143 1011.439209,506.389038
	C1010.685303,529.298279 1012.472595,552.298889 1013.331604,575.250549
	C1013.811951,588.085754 1014.723267,600.904785 1015.440430,613.731140
	C1015.718323,613.743835 1015.996216,613.756592 1016.274109,613.769348
	C1019.261414,561.819275 1022.248718,509.869171 1025.421387,457.000854
M967.251404,575.195007
	C960.860168,552.447998 954.478210,529.698364 948.075989,506.954437
	C930.629395,444.975891 913.179688,382.998230 895.718689,321.023743
	C891.296753,305.328949 886.843079,289.643036 882.360779,273.965424
	C881.800781,272.006592 881.729126,269.199188 878.431824,270.116669
	C866.607849,273.406708 854.808289,276.784607 843.059875,280.112183
	C844.982056,290.466248 845.855713,291.039581 854.908691,288.402954
	C855.388123,288.263306 855.865845,288.117523 856.347473,287.985779
	C861.895264,286.467834 867.443665,284.952057 873.039551,283.422729
	C873.565247,284.745850 873.860962,285.332764 874.036316,285.953705
	C890.719971,345.033234 907.341003,404.130493 924.100586,463.188446
	C929.503113,482.226074 934.652771,501.371582 941.057617,520.077515
	C946.440369,535.798218 953.475525,550.953247 959.784790,566.356445
	C963.132141,574.528442 966.491516,582.695618 969.845459,590.864929
	C970.281006,590.735718 970.716492,590.606506 971.152039,590.477356
	C969.940796,585.639526 968.729553,580.801758 967.251404,575.195007
M1123.442993,339.989594
	C1128.409790,320.490875 1133.425415,301.004211 1138.244751,281.469086
	C1138.604126,280.012787 1137.909424,276.982056 1137.111084,276.753082
	C1126.320801,273.658447 1115.425415,270.930817 1104.111938,267.997253
	C1103.443848,272.084564 1102.892944,275.454407 1102.296875,279.100616
	C1110.346069,281.209259 1118.003784,283.215393 1125.833130,285.266479
	C1124.652222,290.093170 1123.632324,294.450165 1122.518921,298.783112
	C1108.074463,354.996185 1093.578491,411.196106 1079.184692,467.422180
	C1074.608398,485.298126 1069.480713,503.088318 1066.077881,521.194458
	C1062.244751,541.590515 1060.046021,562.295166 1057.193359,582.873535
	C1056.041992,591.178833 1055.040649,599.504883 1053.971069,607.821533
	C1055.079468,606.188171 1055.598145,604.458069 1056.047241,602.710083
	C1066.969727,560.189026 1077.897095,517.669312 1088.797974,475.142731
	C1100.277832,430.358368 1111.730713,385.567139 1123.442993,339.989594
M1073.903198,353.394653
	C1078.928467,323.126831 1083.953735,292.859039 1089.057983,262.115784
	C1076.897949,260.069427 1065.322021,258.121368 1053.350952,256.106812
	C1053.111084,258.406982 1053.178589,260.421997 1052.652588,262.267944
	C1051.440308,266.521973 1053.136353,267.751038 1057.240601,268.193359
	C1063.463867,268.864075 1069.607300,270.275879 1075.960693,271.404144
	C1075.772583,272.977264 1075.681519,274.120148 1075.494263,275.247070
	C1072.009155,296.235291 1068.514038,317.221863 1065.018066,338.208282
	C1058.871948,375.104584 1052.653809,411.989044 1046.602295,448.900848
	C1042.892822,471.527191 1038.097168,493.990326 1037.717651,517.094666
	C1037.507568,529.883301 1036.036621,542.647949 1035.271240,555.431641
	C1034.548096,567.508667 1034.004395,579.596436 1033.310059,593.069580
	C1034.077393,590.105835 1034.616089,588.529114 1034.886475,586.907593
	C1043.637085,534.439087 1052.341431,481.962799 1061.098999,429.495453
	C1065.286499,404.407532 1069.567383,379.335175 1073.903198,353.394653
M985.968689,575.348999
	C983.661560,562.081299 981.336975,548.816589 979.050537,535.545349
	C972.192261,495.738403 965.350830,455.928528 958.499268,416.120453
	C952.324036,380.241577 946.137024,344.364746 939.969727,308.484528
	C937.238281,292.593628 934.611816,276.683960 931.712769,260.823914
	C931.451111,259.392212 929.363098,257.045227 928.413635,257.179321
	C917.623108,258.703369 906.889221,260.627991 896.194275,262.436310
	C897.217712,273.191193 897.410400,273.369965 906.956421,271.970581
	C911.805115,271.259827 916.640442,270.457886 921.527527,269.690002
	C922.089905,271.698761 922.561768,272.948883 922.784241,274.241913
	C932.536316,330.926361 942.226868,387.621368 952.022583,444.298248
	C955.051392,461.822510 957.588501,479.483612 961.734680,496.749756
	C966.857666,518.083679 973.403503,539.076721 979.378235,560.204712
	C981.190430,566.612976 983.147156,572.980347 985.037720,579.366455
	C985.368958,579.283936 985.700256,579.201416 986.031494,579.118958
	C986.031494,578.130798 986.031494,577.142700 985.968689,575.348999
M994.035706,501.422913
	C993.085815,482.812592 992.102661,464.203857 991.193176,445.591583
	C989.455078,410.020111 987.735474,374.447723 986.053589,338.873566
	C984.929565,315.099030 983.912781,291.319366 982.782349,267.545135
	C982.516724,261.958191 981.986084,256.383850 981.552612,250.465454
	C969.589905,251.058167 958.085938,251.628143 946.213806,252.216354
	C946.991455,256.264923 947.631653,259.598358 948.206177,262.589600
	C956.177307,262.589600 963.414490,262.589600 970.812073,262.589600
	C970.958069,263.757507 971.139099,264.724243 971.191711,265.697906
	C972.420410,288.459106 973.729553,311.216522 974.829834,333.983978
	C976.364563,365.738190 977.714661,397.501312 979.205688,429.257690
	C979.548706,436.563995 979.668701,443.927521 980.719910,451.144043
	C982.924072,466.275970 985.624084,481.337128 988.224792,496.409393
	C990.439392,509.243866 992.800049,522.053101 995.096130,534.873474
	C995.326050,534.836426 995.556030,534.799377 995.785950,534.762329
	C995.211975,523.971008 994.637939,513.179688 994.035706,501.422913
M757.069458,267.178802
	C758.711731,267.681427 760.441589,268.800903 761.981445,268.582306
	C769.536865,267.509613 777.045288,266.101135 784.563599,264.773193
	C794.042175,263.099030 803.514282,261.387970 812.989136,259.692871
	C812.947510,259.345825 812.905823,258.998779 812.864136,258.651764
	C794.345581,259.530884 775.826965,260.409973 757.011719,261.303192
	C757.011719,263.347870 757.011719,264.824402 757.069458,267.178802
M1052.117798,222.361099
	C1061.594238,225.834763 1071.070679,229.308441 1080.547119,232.782104
	C1080.782959,232.263657 1081.018799,231.745209 1081.254761,231.226746
	C1066.391479,223.497238 1051.528320,215.767731 1036.233398,207.813705
	C1034.972778,210.354401 1033.926147,212.463638 1032.667847,214.999588
	C1039.321777,217.508820 1045.359009,219.785507 1052.117798,222.361099
M741.786987,291.173065
	C745.862610,290.030396 749.938232,288.887756 754.013855,287.745117
	C753.946472,287.462708 753.879150,287.180328 753.811768,286.897949
	C738.995239,289.451172 724.178650,292.004395 709.438782,294.544434
	C709.358521,300.186493 709.535583,300.340424 714.153931,299.032288
	C723.107910,296.496124 732.061096,293.957428 741.786987,291.173065
M679.514465,326.049438
	C674.479004,327.522949 669.443604,328.996429 664.067627,330.569580
	C664.896423,332.728394 665.504944,334.313446 666.182556,336.078522
	C679.663269,330.516876 692.525085,325.210571 705.386841,319.904266
	C705.269836,319.557648 705.152832,319.210999 705.035767,318.864380
	C696.792175,321.199432 688.548584,323.534485 679.514465,326.049438
M1004.312195,225.140884
	C1007.220032,225.866455 1010.127869,226.592010 1013.035706,227.317566
	C1011.776794,225.497787 1010.236511,224.571854 1008.582214,223.948044
	C999.716980,220.604935 990.754700,217.507767 981.967651,213.973297
	C977.391541,212.132599 976.913574,214.372513 976.731140,218.043991
	C985.846191,220.394882 994.682312,222.673828 1004.312195,225.140884
M831.565125,238.029770
	C826.257751,237.698746 820.952209,237.218704 815.641663,237.156067
	C814.510742,237.142731 813.361938,238.648270 812.221313,239.454025
	C813.333984,240.275833 814.476807,241.847809 815.554749,241.804535
	C827.651672,241.318924 839.738525,240.584763 851.828125,239.917419
	C851.824341,239.712921 851.820618,239.508438 851.816895,239.303955
	C845.384705,238.885986 838.952454,238.468018 831.565125,238.029770
M1111.557861,631.206360
	C1111.363770,630.908875 1111.169556,630.611389 1110.975464,630.313965
	C1110.769165,630.517517 1110.562866,630.721130 1110.356567,630.924683
	C1110.631470,631.145630 1110.906372,631.366638 1111.557861,631.206360
M815.869202,258.403687
	C815.945129,258.402985 816.020996,258.402283 815.869202,258.403687
M707.848145,318.638123
	C707.918579,318.546021 707.989014,318.453888 708.059387,318.361694
	C707.935608,318.394531 707.811890,318.427399 707.848145,318.638123
z" fill="#45FC02" opacity="1.000000" stroke="none" />
    <path d="
M572.572266,881.733582
	C576.722595,886.147827 580.349121,890.600586 584.362427,894.671997
	C601.611938,912.171753 618.987976,929.546814 636.292847,946.992126
	C649.500793,960.307190 662.671082,973.659607 676.147400,987.104248
	C685.041443,996.170898 693.621826,1005.152405 702.277954,1014.060364
	C703.537720,1015.356689 705.159607,1016.300964 705.921509,1016.880981
	C691.300171,1032.018555 677.302002,1046.510986 663.188110,1061.286133
	C661.586975,1060.879272 659.744019,1060.542114 658.667603,1059.449463
	C616.105652,1016.248962 573.614746,972.978394 531.110046,929.721497
	C526.906006,925.442993 522.619385,921.243835 518.491394,916.893677
	C517.456055,915.802612 516.887512,914.268555 516.259399,912.610229
	C529.939697,899.135620 543.464355,885.987976 556.992188,872.843628
	C557.931335,871.931152 558.894104,871.043030 561.171265,868.891052
	C564.913879,873.192383 568.570129,877.394470 572.572266,881.733582
z" fill="#FDFEFE" opacity="1.000000" stroke="none" />
    <path d="
M1242.939575,987.500488
	C1246.030273,984.608887 1249.167480,982.190186 1251.925659,979.397217
	C1267.322266,963.805847 1282.627441,948.124207 1297.963013,932.472717
	C1313.295288,916.824402 1328.634888,901.183228 1343.937378,885.505798
	C1344.832642,884.588623 1345.425659,883.376282 1346.226074,882.009766
	C1350.564941,877.894043 1354.837036,874.069946 1359.505981,869.890503
	C1373.693359,883.854553 1387.928833,897.866150 1402.439697,912.066528
	C1390.901489,924.439453 1379.150757,936.685181 1367.262573,948.795959
	C1330.869995,985.870117 1294.424683,1022.892700 1257.996094,1059.931641
	C1257.648193,1060.285400 1257.247925,1060.587891 1256.579102,1061.046875
	C1242.374512,1046.677368 1228.462769,1032.175415 1214.203247,1017.310913
	C1223.034912,1008.200684 1232.923096,998.000610 1242.939575,987.500488
z" fill="#FDFEFE" opacity="1.000000" stroke="none" />
    <path d="
M595.111450,1151.388672
	C594.572388,1164.367554 584.321594,1172.927490 575.060486,1173.870361
	C557.397766,1175.668823 548.937622,1167.451050 546.511169,1155.809448
	C543.049927,1139.202637 550.383606,1126.459839 568.943176,1124.406616
	C584.399841,1122.696655 596.635742,1135.575562 595.111450,1151.388672
z" fill="#000000" opacity="1.000000" stroke="none" />
    <path d="
M1322.535522,1156.035522
	C1320.292725,1138.876343 1326.848145,1128.464722 1341.878174,1124.871216
	C1352.111572,1122.424683 1360.225952,1126.397949 1366.476440,1134.120483
	C1372.046265,1141.002197 1373.218384,1148.792969 1370.335815,1157.520264
	C1364.722656,1174.513672 1343.514771,1179.308105 1330.797607,1168.641724
	C1327.207153,1165.630371 1325.348877,1160.554077 1322.535522,1156.035522
z" fill="#010101" opacity="1.000000" stroke="none" />
    <path d="
M759.309326,683.855713
	C770.207275,666.874084 781.105286,649.892456 792.731445,632.836914
	C804.213623,633.424988 815.206665,635.856812 825.680481,634.442688
	C871.149292,628.303650 901.440857,587.433472 895.120361,541.969482
	C888.981079,497.808960 847.375305,465.956573 801.976990,473.328186
	C749.269165,481.886688 719.648682,535.021057 739.156433,584.920166
	C734.395264,589.417847 729.634094,593.915527 724.505127,598.205994
	C719.767883,587.201904 715.443665,576.386414 711.021301,565.611267
	C688.335083,510.335449 665.620178,455.071350 642.925293,399.799103
	C640.176636,393.104736 637.488281,386.385620 634.604248,379.263977
	C697.348206,353.504181 759.475952,327.997345 822.120422,302.278381
	C880.632629,444.695129 938.909912,586.539978 997.278015,728.605957
	C995.974243,729.265381 995.138733,729.760742 994.249878,730.126648
	C976.399231,737.477051 958.546143,744.821655 940.686035,752.149109
	C898.652039,769.394470 856.608643,786.617065 814.589783,803.899170
	C811.741821,805.070557 809.650940,806.065735 808.027893,801.994080
	C800.448242,782.979858 792.638367,764.056641 784.820007,745.138428
	C776.368958,724.689148 767.817200,704.281494 759.309326,683.855713
M723.991272,394.465210
	C719.520264,399.327515 714.279663,403.690369 710.734070,409.153290
	C702.700012,421.531860 707.106079,434.398224 720.657837,440.231628
	C722.477417,441.014862 724.398499,441.627563 726.328918,442.077545
	C745.369141,446.515808 762.903137,441.753052 779.567444,432.836609
	C789.232788,427.665100 797.460144,420.670380 802.519653,410.648224
	C808.278809,399.239807 804.774414,387.811340 793.165344,382.704437
	C787.380188,380.159485 780.778625,378.517365 774.477539,378.277954
	C756.113953,377.580383 739.478577,383.321625 723.991272,394.465210
M825.098633,708.806763
	C827.946960,718.806702 835.836426,722.938110 844.945068,724.865173
	C860.793640,728.218140 876.021484,725.424805 890.618103,718.752625
	C902.169739,713.472473 912.358582,706.485901 919.081909,695.339600
	C925.438354,684.801636 923.961792,674.157593 914.600647,667.413635
	C911.070435,664.870422 906.650330,662.939331 902.374695,662.157410
	C879.219604,657.923035 858.515686,664.127869 840.182800,678.378357
	C830.683533,685.762451 823.429016,694.702881 825.098633,708.806763
z" fill="#45FD01" opacity="1.000000" stroke="none" />
    <path d="
M739.458679,584.815918
	C719.648682,535.021057 749.269165,481.886688 801.976990,473.328186
	C847.375305,465.956573 888.981079,497.808960 895.120361,541.969482
	C901.440857,587.433472 871.149292,628.303650 825.680481,634.442688
	C815.206665,635.856812 804.213623,633.424988 793.015259,632.657959
	C797.752319,624.838013 802.799622,617.029053 808.139282,609.425415
	C826.009827,583.978027 826.668884,555.551147 809.799988,530.661194
	C808.596558,528.885559 807.217102,527.229248 805.463257,524.915405
	C783.394958,545.000000 761.577942,564.855835 739.458679,584.815918
z" fill="#1A5C02" opacity="1.000000" stroke="none" />
    <path d="
M759.061279,684.125977
	C767.817200,704.281494 776.368958,724.689148 784.820007,745.138428
	C792.638367,764.056641 800.448242,782.979858 808.027893,801.994080
	C809.650940,806.065735 811.741821,805.070557 814.589783,803.899170
	C856.608643,786.617065 898.652039,769.394470 940.686035,752.149109
	C958.546143,744.821655 976.399231,737.477051 994.249878,730.126648
	C995.138733,729.760742 995.974243,729.265381 997.278015,728.605957
	C938.909912,586.539978 880.632629,444.695129 822.120422,302.278381
	C759.475952,327.997345 697.348206,353.504181 634.604248,379.263977
	C637.488281,386.385620 640.176636,393.104736 642.925293,399.799103
	C665.620178,455.071350 688.335083,510.335449 711.021301,565.611267
	C715.443665,576.386414 719.767883,587.201904 724.238770,598.348267
	C721.740906,601.117126 719.141541,603.536499 716.216736,606.105835
	C707.273804,585.511658 698.596619,564.792053 690.050354,544.018616
	C667.062927,488.142609 644.130676,432.243835 621.183167,376.351379
	C620.815247,375.455322 620.531067,374.524933 620.032166,373.113708
	C689.414917,344.623627 758.612854,316.209503 828.247986,287.615814
	C889.572815,436.894470 950.699890,585.691711 1012.036194,734.998169
	C942.601685,763.507263 873.534790,791.865295 803.692139,820.541931
	C786.550659,778.901306 769.545837,737.592773 752.283081,696.018799
	C754.287842,691.967712 756.550537,688.182007 759.061279,684.125977
z" fill="#195E03" opacity="1.000000" stroke="none" />
    <path d="
M1135.732300,544.388855
	C1179.891968,476.990356 1224.221680,409.902405 1268.893066,342.297546
	C1261.273682,337.172791 1253.769897,332.125763 1246.005737,326.903595
	C1247.763062,323.501373 1249.333252,320.461578 1251.134888,316.973633
	C1262.334839,324.375641 1273.124146,331.506348 1284.544312,339.053925
	C1237.677002,409.910248 1190.972168,480.520996 1144.095703,551.409302
	C1141.250244,549.357727 1138.576294,547.028564 1135.732300,544.388855
z" fill="#195E03" opacity="1.000000" stroke="none" />
    <path d="
M1155.936279,562.967163
	C1166.795532,548.352295 1177.560181,533.773071 1189.018677,519.761292
	C1216.826172,485.757599 1244.952881,452.015015 1272.958496,418.173401
	C1283.671875,405.227661 1294.406494,392.299561 1305.126221,379.359161
	C1305.746582,378.610229 1306.321289,377.823425 1307.218750,376.665009
	C1301.113892,371.552307 1295.175903,366.579437 1288.842896,361.275696
	C1290.827271,358.279694 1292.717773,355.425507 1295.001221,351.977753
	C1304.428833,359.742340 1313.579346,367.278687 1323.176270,375.182739
	C1269.654297,439.848969 1216.435791,504.148712 1163.028320,568.734009
	C1160.611938,567.100037 1158.384766,565.180420 1155.936279,562.967163
z" fill="#195E04" opacity="1.000000" stroke="none" />
    <path d="
M1118.080933,528.323303
	C1122.865723,514.949402 1127.086304,501.559296 1132.841187,488.864685
	C1140.733887,471.453888 1149.638062,454.492401 1158.379028,437.477203
	C1178.383911,398.535431 1198.554565,359.678894 1218.648193,320.782684
	C1219.392944,319.341064 1220.033691,317.845795 1220.866211,316.069824
	C1214.195312,312.535980 1207.765625,309.130035 1200.770630,305.424561
	C1202.040894,301.965057 1203.254883,298.658691 1204.638062,294.891571
	C1215.260010,300.404327 1225.408813,305.671448 1235.931763,311.132721
	C1235.314575,312.647003 1234.876587,314.015869 1234.226318,315.275116
	C1197.789673,385.825531 1161.336670,456.367432 1124.873535,526.904053
	C1124.110474,528.380005 1123.208130,529.783813 1122.216309,531.513123
	C1120.774902,530.742432 1119.487793,529.679810 1118.080933,528.323303
z" fill="#1A5E03" opacity="1.000000" stroke="none" />
    <path d="
M1108.013184,660.969727
	C1114.618896,652.276428 1121.549072,643.756104 1128.749268,635.023621
	C1140.688232,651.226379 1152.366455,667.634644 1164.020264,684.060181
	C1167.584717,689.083801 1171.082642,694.154602 1174.052856,700.037781
	C1152.147705,687.072754 1130.242554,674.107666 1108.013184,660.969727
z" fill="#076AFA" opacity="1.000000" stroke="none" />
    <path d="
M1108.326172,605.170288
	C1101.534424,615.827698 1094.644653,626.175354 1087.754883,636.522949
	C1087.258423,636.216797 1086.762085,635.910706 1086.265747,635.604553
	C1092.373901,623.848999 1098.482056,612.093445 1104.823975,600.071289
	C1106.114502,601.489990 1107.171387,603.175232 1108.326172,605.170288
z" fill="#1C6805" opacity="1.000000" stroke="none" />
    <path d="
M1119.749268,621.512085
	C1117.526978,624.210510 1115.268555,626.644592 1113.010132,629.078735
	C1112.737549,628.859802 1112.464844,628.640869 1112.192139,628.421936
	C1113.886353,625.316528 1115.580566,622.211182 1117.406372,618.797363
	C1118.263062,619.408569 1118.988159,620.328125 1119.749268,621.512085
z" fill="#298A06" opacity="1.000000" stroke="none" />
    <path d="
M1025.328735,457.459961
	C1022.248718,509.869171 1019.261414,561.819275 1016.274109,613.769348
	C1015.996216,613.756592 1015.718323,613.743835 1015.440430,613.731140
	C1014.723267,600.904785 1013.811951,588.085754 1013.331604,575.250549
	C1012.472595,552.298889 1010.685303,529.298279 1011.439209,506.389038
	C1012.620667,470.490143 1015.605896,434.651001 1017.797546,398.784760
	C1018.538513,386.659790 1019.174255,374.528473 1019.885315,362.401642
	C1021.833130,329.184052 1023.796143,295.967346 1025.740601,262.749573
	C1025.759155,262.432159 1025.607422,262.104736 1025.357788,260.990204
	C1016.598206,260.322418 1007.591919,259.635834 998.224060,258.921722
	C998.224060,255.287186 998.224060,252.035294 998.224060,247.913925
	C1011.083191,248.700623 1023.903198,249.484924 1037.340576,250.307007
	C1036.773926,262.081421 1036.322021,273.348877 1035.665894,284.604462
	C1034.910889,297.557831 1033.879883,310.495209 1033.136353,323.449188
	C1030.971924,361.159332 1028.901611,398.874908 1026.768188,436.586853
	C1026.383057,443.395111 1025.873535,450.196381 1025.328735,457.459961
z" fill="#1A5E02" opacity="1.000000" stroke="none" />
    <path d="
M967.384888,575.579468
	C968.729553,580.801758 969.940796,585.639526 971.152039,590.477356
	C970.716492,590.606506 970.281006,590.735718 969.845459,590.864929
	C966.491516,582.695618 963.132141,574.528442 959.784790,566.356445
	C953.475525,550.953247 946.440369,535.798218 941.057617,520.077515
	C934.652771,501.371582 929.503113,482.226074 924.100586,463.188446
	C907.341003,404.130493 890.719971,345.033234 874.036316,285.953705
	C873.860962,285.332764 873.565247,284.745850 873.039551,283.422729
	C867.443665,284.952057 861.895264,286.467834 856.347473,287.985779
	C855.865845,288.117523 855.388123,288.263306 854.908691,288.402954
	C845.855713,291.039581 844.982056,290.466248 843.059875,280.112183
	C854.808289,276.784607 866.607849,273.406708 878.431824,270.116669
	C881.729126,269.199188 881.800781,272.006592 882.360779,273.965424
	C886.843079,289.643036 891.296753,305.328949 895.718689,321.023743
	C913.179688,382.998230 930.629395,444.975891 948.075989,506.954437
	C954.478210,529.698364 960.860168,552.447998 967.384888,575.579468
z" fill="#1A5E03" opacity="1.000000" stroke="none" />
    <path d="
M1123.319214,340.384277
	C1111.730713,385.567139 1100.277832,430.358368 1088.797974,475.142731
	C1077.897095,517.669312 1066.969727,560.189026 1056.047241,602.710083
	C1055.598145,604.458069 1055.079468,606.188171 1053.971069,607.821533
	C1055.040649,599.504883 1056.041992,591.178833 1057.193359,582.873535
	C1060.046021,562.295166 1062.244751,541.590515 1066.077881,521.194458
	C1069.480713,503.088318 1074.608398,485.298126 1079.184692,467.422180
	C1093.578491,411.196106 1108.074463,354.996185 1122.518921,298.783112
	C1123.632324,294.450165 1124.652222,290.093170 1125.833130,285.266479
	C1118.003784,283.215393 1110.346069,281.209259 1102.296875,279.100616
	C1102.892944,275.454407 1103.443848,272.084564 1104.111938,267.997253
	C1115.425415,270.930817 1126.320801,273.658447 1137.111084,276.753082
	C1137.909424,276.982056 1138.604126,280.012787 1138.244751,281.469086
	C1133.425415,301.004211 1128.409790,320.490875 1123.319214,340.384277
z" fill="#1A5E03" opacity="1.000000" stroke="none" />
    <path d="
M1073.028809,603.013000
	C1075.139038,593.801941 1077.095947,584.552490 1079.390747,575.387634
	C1084.560669,554.739746 1089.275146,533.947693 1095.361328,513.568665
	C1100.352295,496.857086 1106.954956,480.619598 1113.019165,464.237061
	C1132.945068,410.406891 1152.919434,356.594574 1172.991333,302.818787
	C1174.463623,298.874115 1174.211304,296.776031 1169.697144,295.643799
	C1165.688110,294.638275 1161.961792,292.523956 1157.961182,291.461548
	C1153.669556,290.321838 1152.034546,288.372162 1154.010376,284.068390
	C1154.689209,282.589630 1154.971069,280.928650 1155.649170,278.619141
	C1166.857666,282.753357 1177.809814,286.793060 1189.209961,290.997955
	C1185.113159,302.092194 1181.219971,312.670441 1177.302002,323.239655
	C1154.459473,384.861023 1131.629150,446.486938 1108.757324,508.097443
	C1097.061035,539.604248 1085.287109,571.082214 1073.268799,602.779541
	C1072.989380,602.985840 1073.028809,603.013000 1073.028809,603.013000
z" fill="#1A5E03" opacity="1.000000" stroke="none" />
    <path d="
M1073.854614,353.825195
	C1069.567383,379.335175 1065.286499,404.407532 1061.098999,429.495453
	C1052.341431,481.962799 1043.637085,534.439087 1034.886475,586.907593
	C1034.616089,588.529114 1034.077393,590.105835 1033.310059,593.069580
	C1034.004395,579.596436 1034.548096,567.508667 1035.271240,555.431641
	C1036.036621,542.647949 1037.507568,529.883301 1037.717651,517.094666
	C1038.097168,493.990326 1042.892822,471.527191 1046.602295,448.900848
	C1052.653809,411.989044 1058.871948,375.104584 1065.018066,338.208282
	C1068.514038,317.221863 1072.009155,296.235291 1075.494263,275.247070
	C1075.681519,274.120148 1075.772583,272.977264 1075.960693,271.404144
	C1069.607300,270.275879 1063.463867,268.864075 1057.240601,268.193359
	C1053.136353,267.751038 1051.440308,266.521973 1052.652588,262.267944
	C1053.178589,260.421997 1053.111084,258.406982 1053.350952,256.106812
	C1065.322021,258.121368 1076.897949,260.069427 1089.057983,262.115784
	C1083.953735,292.859039 1078.928467,323.126831 1073.854614,353.825195
z" fill="#1A5E02" opacity="1.000000" stroke="none" />
    <path d="
M986.000122,575.751770
	C986.031494,577.142700 986.031494,578.130798 986.031494,579.118958
	C985.700256,579.201416 985.368958,579.283936 985.037720,579.366455
	C983.147156,572.980347 981.190430,566.612976 979.378235,560.204712
	C973.403503,539.076721 966.857666,518.083679 961.734680,496.749756
	C957.588501,479.483612 955.051392,461.822510 952.022583,444.298248
	C942.226868,387.621368 932.536316,330.926361 922.784241,274.241913
	C922.561768,272.948883 922.089905,271.698761 921.527527,269.690002
	C916.640442,270.457886 911.805115,271.259827 906.956421,271.970581
	C897.410400,273.369965 897.217712,273.191193 896.194275,262.436310
	C906.889221,260.627991 917.623108,258.703369 928.413635,257.179321
	C929.363098,257.045227 931.451111,259.392212 931.712769,260.823914
	C934.611816,276.683960 937.238281,292.593628 939.969727,308.484528
	C946.137024,344.364746 952.324036,380.241577 958.499268,416.120453
	C965.350830,455.928528 972.192261,495.738403 979.050537,535.545349
	C981.336975,548.816589 983.661560,562.081299 986.000122,575.751770
z" fill="#1A5E02" opacity="1.000000" stroke="none" />
    <path d="
M994.049805,501.905640
	C994.637939,513.179688 995.211975,523.971008 995.785950,534.762329
	C995.556030,534.799377 995.326050,534.836426 995.096130,534.873474
	C992.800049,522.053101 990.439392,509.243866 988.224792,496.409393
	C985.624084,481.337128 982.924072,466.275970 980.719910,451.144043
	C979.668701,443.927521 979.548706,436.563995 979.205688,429.257690
	C977.714661,397.501312 976.364563,365.738190 974.829834,333.983978
	C973.729553,311.216522 972.420410,288.459106 971.191711,265.697906
	C971.139099,264.724243 970.958069,263.757507 970.812073,262.589600
	C963.414490,262.589600 956.177307,262.589600 948.206177,262.589600
	C947.631653,259.598358 946.991455,256.264923 946.213806,252.216354
	C958.085938,251.628143 969.589905,251.058167 981.552612,250.465454
	C981.986084,256.383850 982.516724,261.958191 982.782349,267.545135
	C983.912781,291.319366 984.929565,315.099030 986.053589,338.873566
	C987.735474,374.447723 989.455078,410.020111 991.193176,445.591583
	C992.102661,464.203857 993.085815,482.812592 994.049805,501.905640
z" fill="#1A5E02" opacity="1.000000" stroke="none" />
    <path d="
M757.040588,266.739868
	C757.011719,264.824402 757.011719,263.347870 757.011719,261.303192
	C775.826965,260.409973 794.345581,259.530884 812.864136,258.651764
	C812.905823,258.998779 812.947510,259.345825 812.989136,259.692871
	C803.514282,261.387970 794.042175,263.099030 784.563599,264.773193
	C777.045288,266.101135 769.536865,267.509613 761.981445,268.582306
	C760.441589,268.800903 758.711731,267.681427 757.040588,266.739868
z" fill="#1C6703" opacity="1.000000" stroke="none" />
    <path d="
M1051.757080,222.211639
	C1045.359009,219.785507 1039.321777,217.508820 1032.667847,214.999588
	C1033.926147,212.463638 1034.972778,210.354401 1036.233398,207.813705
	C1051.528320,215.767731 1066.391479,223.497238 1081.254761,231.226746
	C1081.018799,231.745209 1080.782959,232.263657 1080.547119,232.782104
	C1071.070679,229.308441 1061.594238,225.834763 1051.757080,222.211639
z" fill="#1B6504" opacity="1.000000" stroke="none" />
    <path d="
M741.400818,291.296417
	C732.061096,293.957428 723.107910,296.496124 714.153931,299.032288
	C709.535583,300.340424 709.358521,300.186493 709.438782,294.544434
	C724.178650,292.004395 738.995239,289.451172 753.811768,286.897949
	C753.879150,287.180328 753.946472,287.462708 754.013855,287.745117
	C749.938232,288.887756 745.862610,290.030396 741.400818,291.296417
z" fill="#1E6D04" opacity="1.000000" stroke="none" />
    <path d="
M679.909729,325.959473
	C688.548584,323.534485 696.792175,321.199432 705.035767,318.864380
	C705.152832,319.210999 705.269836,319.557648 705.386841,319.904266
	C692.525085,325.210571 679.663269,330.516876 666.182556,336.078522
	C665.504944,334.313446 664.896423,332.728394 664.067627,330.569580
	C669.443604,328.996429 674.479004,327.522949 679.909729,325.959473
z" fill="#1D6C04" opacity="1.000000" stroke="none" />
    <path d="
M1003.915283,225.046844
	C994.682312,222.673828 985.846191,220.394882 976.731140,218.043991
	C976.913574,214.372513 977.391541,212.132599 981.967651,213.973297
	C990.754700,217.507767 999.716980,220.604935 1008.582214,223.948044
	C1010.236511,224.571854 1011.776794,225.497787 1013.035706,227.317566
	C1010.127869,226.592010 1007.220032,225.866455 1003.915283,225.046844
z" fill="#1D6904" opacity="1.000000" stroke="none" />
    <path d="
M832.042664,238.039917
	C838.952454,238.468018 845.384705,238.885986 851.816895,239.303955
	C851.820618,239.508438 851.824341,239.712921 851.828125,239.917419
	C839.738525,240.584763 827.651672,241.318924 815.554749,241.804535
	C814.476807,241.847809 813.333984,240.275833 812.221313,239.454041
	C813.361938,238.648270 814.510742,237.142731 815.641663,237.156067
	C820.952209,237.218704 826.257751,237.698746 832.042664,238.039917
z" fill="#207403" opacity="1.000000" stroke="none" />
    <path d="
M1124.007324,233.988602
	C1114.848511,229.393143 1105.658203,224.857376 1096.585571,220.097794
	C1095.793091,219.682037 1095.772095,217.795517 1095.392822,216.592163
	C1096.492554,216.384705 1097.966919,215.612381 1098.635132,216.055542
	C1107.164062,221.711517 1115.577393,227.541626 1124.008057,233.666138
	C1123.995972,234.004730 1124.007324,233.988602 1124.007324,233.988602
z" fill="#1E6F05" opacity="1.000000" stroke="none" />
    <path d="
M1111.369629,631.396973
	C1110.906372,631.366638 1110.631470,631.145630 1110.356567,630.924683
	C1110.562866,630.721130 1110.769165,630.517517 1110.975464,630.313965
	C1111.169556,630.611389 1111.363770,630.908875 1111.369629,631.396973
z" fill="#298A06" opacity="1.000000" stroke="none" />
    <path d="
M1123.988281,234.013321
	C1124.669922,234.083038 1125.359375,234.144150 1126.048828,234.205276
	C1126.006836,234.431549 1125.964722,234.657822 1125.922729,234.884079
	C1125.386719,234.745499 1124.850586,234.606918 1124.160889,234.228470
	C1124.007324,233.988602 1123.995972,234.004730 1123.988281,234.013321
z" fill="#1E6F05" opacity="1.000000" stroke="none" />
    <path d="
M1072.972412,602.968872
	C1072.917847,603.593506 1072.880127,604.235168 1072.842529,604.876770
	C1072.703979,604.876465 1072.565430,604.876160 1072.427002,604.875854
	C1072.456787,604.338501 1072.486572,603.801086 1072.772583,603.138367
	C1073.028809,603.013000 1072.989380,602.985840 1072.972412,602.968872
z" fill="#1A5E03" opacity="1.000000" stroke="none" />
    <path d="
M815.983032,258.402649
	C816.020996,258.402283 815.945129,258.402985 815.983032,258.402649
z" fill="#1C6703" opacity="1.000000" stroke="none" />
    <path d="
M707.768127,318.549194
	C707.811890,318.427399 707.935608,318.394531 708.059448,318.361725
	C707.989014,318.453888 707.918579,318.546021 707.768127,318.549194
z" fill="#1D6C04" opacity="1.000000" stroke="none" />
    <path d="
M724.270508,394.238403
	C739.478577,383.321625 756.113953,377.580383 774.477539,378.277954
	C780.778625,378.517365 787.380188,380.159485 793.165344,382.704437
	C804.774414,387.811340 808.278809,399.239807 802.519653,410.648224
	C797.460144,420.670380 789.232788,427.665100 779.567444,432.836609
	C762.903137,441.753052 745.369141,446.515808 726.328918,442.077545
	C724.398499,441.627563 722.477417,441.014862 720.657837,440.231628
	C707.106079,434.398224 702.700012,421.531860 710.734070,409.153290
	C714.279663,403.690369 719.520264,399.327515 724.270508,394.238403
z" fill="#195D02" opacity="1.000000" stroke="none" />
    <path d="
M825.031738,708.381714
	C823.429016,694.702881 830.683533,685.762451 840.182800,678.378357
	C858.515686,664.127869 879.219604,657.923035 902.374695,662.157410
	C906.650330,662.939331 911.070435,664.870422 914.600647,667.413635
	C923.961792,674.157593 925.438354,684.801636 919.081909,695.339600
	C912.358582,706.485901 902.169739,713.472473 890.618103,718.752625
	C876.021484,725.424805 860.793640,728.218140 844.945068,724.865173
	C835.836426,722.938110 827.946960,718.806702 825.031738,708.381714
z" fill="#195C02" opacity="1.000000" stroke="none" />
</svg>
